<svg xmlns="http://www.w3.org/2000/svg" viewBox="0 0 40 32" width="400" height="320" fill="none">
  <!-- R letter - italic style, extra bold (white version) -->
  <path d="M8 4 L3 28 L8.5 28 L9.8 19 L12 19 L15.5 28 L21.5 28 L17.5 18.5 C20 17 21.5 14.5 22 11 C22.5 6.5 19.5 4 14 4 L8 4 Z M10.5 8.5 L13 8.5 C16 8.5 17 10 16.7 12.5 C16.4 15 14.5 16 12 16 L10 16 L10.5 8.5 Z" 
        fill="white"/>
  
  <!-- F letter - italic style, extra bold (white version) -->
  <path d="M28 4 L23 28 L28.5 28 L29.8 19 L35 19 L35.5 14.5 L30.3 14.5 L31 8.5 L37 8.5 L37.5 4 L28 4 Z" 
        fill="white"/>
</svg>
